<?xml version="1.0" encoding="UTF-8" standalone="no"?>
<!DOCTYPE svg PUBLIC "-//W3C//DTD SVG 1.1//EN" "http://www.w3.org/Graphics/SVG/1.1/DTD/svg11.dtd">
<svg version="1.1" xmlns="http://www.w3.org/2000/svg" xmlns:xlink="http://www.w3.org/1999/xlink" preserveAspectRatio="xMidYMid meet" viewBox="0 0 640 640" width="200" height="200"><defs><path d="M168.73 552.67L168.01 536.1L168.01 515.93L168.01 484.96L174.49 433.81L186.02 376.91L190.34 350.97L194.66 330.81L199.7 312.8L202.58 301.99L208.35 287.58L216.27 275.34L224.19 263.81L229.24 255.17L230.68 268.14L235 288.31L239.32 299.11L245.08 312.08L250.85 326.48L257.33 341.61L264.53 357.46L271.74 375.47L279.66 394.19L287.58 412.92L292.63 425.89L299.11 439.58L304.87 451.1L310.64 460.47L315.68 469.11L322.88 480.64L318.56 471.27L315.68 460.47L307.03 448.22L296.95 432.37L289.75 415.08L286.14 405.72L281.82 393.47L273.18 376.91L268.86 367.54L262.37 351.69L256.61 330.81L251.57 317.84L247.97 307.75L244.36 295.51L239.32 283.26L234.28 269.58L230.68 258.05L228.52 243.64L233.56 218.43L235.72 197.54L235.72 183.14L235 167.29L233.56 157.2L235.72 144.24L237.88 134.15L239.32 124.07L239.32 113.98L237.88 103.9L245.81 111.1L253.01 119.75L261.65 129.11L268.86 136.31L277.5 146.4L286.86 157.92L293.35 166.57L299.83 174.49L307.75 185.3L314.96 198.98L320.72 209.07L325.76 218.43L326.48 206.19L327.92 195.38L328.64 182.42L330.08 165.13L332.97 141.36L339.45 103.9L343.77 81.57L345.93 66.44L345.93 79.41L345.21 89.49L344.49 102.46L342.33 118.31L340.89 131.27L336.57 152.16L334.41 163.69L330.08 184.58L327.92 197.54L325.76 210.51L322.88 222.03L321.44 236.44L320 246.53L318.56 256.61L317.12 269.58L315.68 281.1L314.96 291.19L314.96 301.27L315.68 311.36L315.68 325.04L315.68 343.05L315.68 358.18L313.52 371.14L325.76 365.38L335.85 360.34L350.25 355.3L366.1 350.97L379.07 345.93L388.43 340.89L403.56 325.04L409.32 316.4L415.81 304.87L424.45 287.58L430.21 271.02L438.14 241.48L443.9 209.07L445.34 183.86L446.06 155.76L445.34 141.36L441.02 119.03L436.69 101.74L433.09 90.93L429.49 81.57L424.45 72.2L419.41 63.56L408.6 59.96L397.08 58.52L386.99 58.52L376.19 57.08L365.38 54.19L355.3 54.19L348.81 63.56L345.21 73.64" id="a1CigiQh1O"></path><path d="M238.6 106.78L217.71 108.22L206.91 110.38L188.9 116.14L162.25 124.79L145.68 130.55L133.43 135.59L121.91 141.36L111.82 145.68L102.46 150L90.93 155.04L101.74 157.92L117.58 159.36L131.27 160.81L149.28 163.69L173.05 168.73L194.66 173.77L213.39 178.81L225.64 180.97L247.97 186.02L265.97 188.18L285.42 190.34L299.11 192.5L313.52 194.66L331.53 197.54L348.09 199.7L359.62 199.7L349.53 201.86" id="g4Skw4yD0u"></path><path d="M324.32 189.62L334.41 189.62L350.97 189.62L363.94 189.62L379.79 189.62L404.28 188.18L417.97 187.46L429.49 186.02L443.18 184.58L454.7 183.14L467.67 181.69L480.64 180.25L492.88 179.53L505.13 178.81L515.93 178.09L527.46 177.37L538.98 176.65L554.83 176.65L564.92 176.65L554.83 172.33L536.82 164.41L523.86 158.64L514.49 154.32L514.49 167.29L515.21 180.97L516.65 197.54L518.09 213.39L526.74 207.63L533.94 198.98L541.86 191.78L549.07 183.86L560.59 174.49L550.51 174.49L536.1 174.49L521.69 173.05L511.61 170.17L521.69 170.89L520.25 160.81L528.9 170.17L520.97 178.81L521.69 191.78L521.69 202.58L524.58 191.06L528.9 179.53L531.06 189.62L527.46 201.14L536.1 193.22L544.75 183.86L552.67 174.49L543.31 183.14L533.94 191.78L524.58 199.7L531.78 184.58L532.5 170.17L528.9 160.81L528.9 170.89L527.46 184.58L519.53 177.37" id="blNs4SL3y"></path><path d="M227.8 104.62L211.95 94.53L200.42 85.89L187.46 72.92L183.86 63.56L190.34 47.71L198.26 39.79L206.91 34.75L219.15 28.98L229.24 26.1L244.36 21.06L263.09 16.74L284.7 13.14L294.79 13.14L304.87 16.02L310.64 24.66L312.8 34.75L314.24 46.99L314.96 60.68L313.52 72.2L307.03 82.29L299.83 90.21L289.75 96.69L276.06 98.14L263.81 98.86L251.57 100.3L238.6 102.46" id="aG2b9zwE9"></path><path d="M206.91 45.55L218.43 45.55L229.96 45.55L240.76 52.03" id="a94uODc2E"></path><path d="M257.33 52.75L266.69 42.67L278.22 34.03L288.31 30.42L298.39 29.7" id="cR9ozo88y"></path><path d="M214.11 79.41L226.36 78.69L236.44 77.97L247.25 74.36L257.33 70.76L267.42 70.04L277.5 68.6L286.86 64.28" id="bE4CHTwTl"></path></defs><g><g><g><g><use xlink:href="#a1CigiQh1O" opacity="1" fill-opacity="0" stroke="#000000" stroke-width="1" stroke-opacity="1"></use></g></g><g><g><use xlink:href="#g4Skw4yD0u" opacity="1" fill-opacity="0" stroke="#000000" stroke-width="1" stroke-opacity="1"></use></g></g><g><g><use xlink:href="#blNs4SL3y" opacity="1" fill-opacity="0" stroke="#000000" stroke-width="1" stroke-opacity="1"></use></g></g><g><g><use xlink:href="#aG2b9zwE9" opacity="1" fill-opacity="0" stroke="#000000" stroke-width="1" stroke-opacity="1"></use></g></g><g><g><use xlink:href="#a94uODc2E" opacity="1" fill-opacity="0" stroke="#000000" stroke-width="1" stroke-opacity="1"></use></g></g><g><g><use xlink:href="#cR9ozo88y" opacity="1" fill-opacity="0" stroke="#000000" stroke-width="1" stroke-opacity="1"></use></g></g><g><g><use xlink:href="#bE4CHTwTl" opacity="1" fill-opacity="0" stroke="#000000" stroke-width="1" stroke-opacity="1"></use></g></g></g></g></svg>