<?xml version="1.0" encoding="UTF-8" standalone="no"?>
<!DOCTYPE svg PUBLIC "-//W3C//DTD SVG 1.1//EN" "http://www.w3.org/Graphics/SVG/1.1/DTD/svg11.dtd">
<svg version="1.1" xmlns="http://www.w3.org/2000/svg" xmlns:xlink="http://www.w3.org/1999/xlink" preserveAspectRatio="xMidYMid meet" viewBox="0 0 640 640" width="200" height="200"><defs><path d="M165.13 582.2L169.45 567.8L179.53 547.63L195.38 518.09L215.55 484.24L235 447.5L248.69 423.73L257.33 405.72L263.81 394.92L273.9 399.24L281.82 410.76L288.31 420.13L304.15 441.02L313.52 453.26L322.88 464.07L331.53 475.59L342.33 490L348.81 500.08L356.74 509.45L363.22 518.81L370.42 528.18L376.19 536.82L385.55 551.23L392.75 562.75L397.08 572.12L388.43 562.03L380.51 551.95L363.94 539.7L350.97 526.74L338.01 513.77L330.81 506.57L317.84 492.88L307.03 480.64L299.11 470.55L292.63 462.63L283.98 451.1L278.22 442.46L272.46 432.37L265.97 420.85L260.93 412.2L263.81 401.4L264.53 391.31L263.81 379.07L262.37 362.5L260.93 352.42L259.49 340.89L257.33 330.81L256.61 320L256.61 308.47L256.61 296.95L257.33 283.98L258.77 273.9L248.69 276.78L239.32 281.82L227.8 287.58L216.27 294.07L205.47 301.27L196.1 308.47L186.74 317.12L179.53 325.76L171.61 334.41L166.57 344.49L160.08 354.58L156.48 363.94L157.92 374.75L162.25 363.94L166.57 348.81L174.49 333.69L182.42 323.6L196.1 309.19L206.91 299.83L216.27 292.63L229.24 282.54L240.04 273.9L249.41 268.14L259.49 265.25L264.53 273.9L274.62 273.9L284.7 276.78L294.79 279.66L307.03 283.98L316.4 287.58L327.92 293.35L340.17 299.83L349.53 306.31L358.9 315.68L366.82 322.88L374.75 330.81L364.66 325.76L355.3 317.84L345.93 312.08L335.85 307.03L326.48 301.27L316.4 296.23L304.87 292.63L290.47 288.31L280.38 286.14L266.69 283.26L256.61 281.1L248.69 273.18L238.6 271.02L228.52 265.25L220.59 256.61L217.71 246.53L217.71 235.72L224.19 227.8L235 227.8L247.97 227.8L260.93 228.52L273.18 229.24L283.98 230.68L287.58 240.76L286.14 250.85L281.1 259.49L271.74 266.69L260.93 271.74L250.85 275.34" id="btFLffEMa"></path><path d="M245.81 227.8L233.56 216.99L221.31 209.79L207.63 205.47L217.71 206.91L228.52 206.91L244.36 206.91L258.05 207.63L272.46 210.51L285.42 215.55L280.38 205.47L280.38 195.38L276.06 206.19L269.58 216.27L263.81 224.92L271.02 216.27L278.94 205.47L286.14 197.54L276.78 206.19L268.14 211.23L258.05 214.83L254.45 204.03L248.69 213.39L248.69 223.47L238.6 220.59L229.96 213.39L229.96 223.47L219.15 220.59L209.79 214.83L206.91 224.92L211.23 234.28L201.14 229.24L212.67 232.12L222.75 229.24L223.47 218.43L224.19 204.75L229.24 196.1L234.28 211.23L235.72 221.31L244.36 229.24L253.73 222.75L260.21 211.23L265.97 202.58L272.46 194.66L281.1 189.62L280.38 203.31L279.66 215.55L291.91 208.35L290.47 220.59L288.31 230.68L294.07 239.32L288.31 247.97L281.82 256.61" id="ammC8Ml2x"></path><path d="M356.74 250.85L356.74 262.37L356.74 272.46L356.74 286.14L356.74 296.95L356.74 312.8L356.74 324.32L356.74 337.29L358.18 351.69L360.34 362.5L363.22 374.75L366.82 387.71L371.86 398.52L376.91 407.88L385.55 412.92L394.92 417.25L402.12 405L410.04 397.08L421.57 383.39L427.33 374.75L433.09 363.22L438.14 348.09L440.3 337.29L441.74 324.32L443.9 307.03L445.34 283.98L445.34 272.46L446.06 261.65L446.06 247.97L445.34 232.84L435.97 229.24L422.29 229.96L411.48 229.96L399.24 229.96L387.71 229.96L376.19 230.68L365.38 232.84L355.3 234.28L358.9 243.64L361.06 253.73L357.46 263.09L357.46 273.18L357.46 283.26" id="c4bKJ6GjKv"></path></defs><g><g><g><g><use xlink:href="#btFLffEMa" opacity="1" fill-opacity="0" stroke="#000000" stroke-width="1" stroke-opacity="1"></use></g></g><g><g><use xlink:href="#ammC8Ml2x" opacity="1" fill-opacity="0" stroke="#000000" stroke-width="1" stroke-opacity="1"></use></g></g><g><g><use xlink:href="#c4bKJ6GjKv" opacity="1" fill-opacity="0" stroke="#000000" stroke-width="1" stroke-opacity="1"></use></g></g></g></g></svg>