<?xml version="1.0" encoding="UTF-8" standalone="no"?>
<!DOCTYPE svg PUBLIC "-//W3C//DTD SVG 1.1//EN" "http://www.w3.org/Graphics/SVG/1.1/DTD/svg11.dtd">
<svg version="1.1" xmlns="http://www.w3.org/2000/svg" xmlns:xlink="http://www.w3.org/1999/xlink" preserveAspectRatio="xMidYMid meet" viewBox="0 0 640 640" width="200" height="200"><defs><path d="M162.45 525.04L163.17 509.21L168.92 491.22L178.99 463.17L191.94 432.23L204.17 399.86L212.09 378.99L217.12 368.2L222.88 355.97L227.91 346.62L233.67 336.55L243.02 346.62L248.78 356.69L257.41 368.92L269.64 384.03L294.1 413.53L312.81 434.39L331.51 455.97L351.65 478.99L368.92 497.7L377.55 507.05L386.19 516.4L396.26 527.19L403.45 534.39" id="a4kAVThPY2"></path><path d="M227.91 336.55L227.91 325.04L227.91 309.93L227.91 278.99L227.91 255.97L227.91 235.83L227.91 217.12L226.47 200.58L225.76 189.78L223.6 176.83L222.88 164.6L222.88 150.94L222.88 140.86L233.67 150.94L242.3 158.13L254.53 167.48L269.64 178.99L279.71 186.19L298.42 198.42L312.81 206.33L332.23 217.84L342.3 225.04L350.22 231.51L358.13 237.99L369.64 247.34L384.75 258.85L394.1 266.04L402.73 271.8L395.54 263.88L386.19 256.69L373.96 253.81L356.69 248.06L343.02 240.86L327.91 232.95L315.68 226.47L307.05 217.84L298.42 208.49L287.63 199.86L276.12 191.22L266.04 183.31L255.97 175.4L245.9 168.92L238.71 161.01L230.79 153.09L221.44 145.9L211.37 149.5L203.45 159.57L191.94 171.08L177.55 184.75L164.6 196.26L154.53 204.89L143.74 215.68L135.83 222.88L127.91 232.23L120.72 242.3L113.53 251.65L118.56 240.14L125.76 230.07L133.67 219.28L143.74 207.05L150.22 199.14L158.85 190.5L167.48 183.31L175.4 176.12L184.03 169.64L195.54 161.73L204.17 155.25L212.81 149.5L222.88 148.06L233.67 153.81L243.02 158.13L254.53 161.73L264.6 167.48L275.4 171.8L284.75 178.99L292.66 186.91L301.29 194.1L308.49 202.73L317.84 210.65L325.04 217.84L334.39 224.32L345.18 229.35L354.53 233.67L364.6 237.27L376.83 241.58L388.35 246.62L389.78 256.69L395.54 267.48L395.54 277.55L396.26 287.63L397.7 297.7L398.42 307.77L399.14 318.56L409.93 317.12L409.93 307.05L409.21 296.26L407.77 284.03L407.77 271.8L405.61 261.01L412.81 253.09L422.88 252.37L432.95 250.94L435.11 240.14L425.76 234.39L415.68 235.11L405.61 236.55L401.29 226.47L399.86 214.24L398.42 203.45L396.98 189.78L395.54 176.12L393.38 164.6L391.22 152.37L389.06 140.14L386.19 130.07L384.75 120L376.83 113.53L366.76 114.24L367.48 124.32L369.64 134.39L370.36 145.18L371.8 155.25L373.24 165.32L374.68 176.12L376.83 186.91L378.27 198.42L380.43 209.21L382.59 219.28L384.03 229.35L385.47 239.42L387.63 249.5L390.5 259.57" id="f3yn9WOfb"></path><path d="M223.6 143.74L207.77 140.86L195.54 134.39L182.59 126.47L171.08 114.96L168.2 104.89L169.64 94.1L176.83 84.75L187.63 78.27L203.45 70.36L214.96 66.04L229.35 64.6L239.42 64.6L250.22 68.92L258.85 77.55L263.88 89.78L265.32 101.29L262.45 111.37L256.69 120.72L249.5 127.91L240.86 134.39L230.07 138.71L220 139.42" id="a1cZwvPIh4"></path><path d="M186.91 89.06L198.42 88.35L208.49 90.5" id="e1keRcw0Ah"></path><path d="M224.32 85.47L234.39 84.03L244.46 81.87L254.53 81.87" id="csEv8R7ei"></path><path d="M194.82 115.68L208.49 115.68L218.56 114.96L228.63 114.96L238.71 113.53" id="b46tR42ug"></path></defs><g><g><g><g><use xlink:href="#a4kAVThPY2" opacity="1" fill-opacity="0" stroke="#000000" stroke-width="1" stroke-opacity="1"></use></g></g><g><g><use xlink:href="#f3yn9WOfb" opacity="1" fill-opacity="0" stroke="#000000" stroke-width="1" stroke-opacity="1"></use></g></g><g><g><use xlink:href="#a1cZwvPIh4" opacity="1" fill-opacity="0" stroke="#000000" stroke-width="1" stroke-opacity="1"></use></g></g><g><g><use xlink:href="#e1keRcw0Ah" opacity="1" fill-opacity="0" stroke="#000000" stroke-width="1" stroke-opacity="1"></use></g></g><g><g><use xlink:href="#csEv8R7ei" opacity="1" fill-opacity="0" stroke="#000000" stroke-width="1" stroke-opacity="1"></use></g></g><g><g><use xlink:href="#b46tR42ug" opacity="1" fill-opacity="0" stroke="#000000" stroke-width="1" stroke-opacity="1"></use></g></g></g></g></svg>