<?xml version="1.0" encoding="UTF-8" standalone="no"?>
<!DOCTYPE svg PUBLIC "-//W3C//DTD SVG 1.1//EN" "http://www.w3.org/Graphics/SVG/1.1/DTD/svg11.dtd">
<svg version="1.1" xmlns="http://www.w3.org/2000/svg" xmlns:xlink="http://www.w3.org/1999/xlink" preserveAspectRatio="xMidYMid meet" viewBox="0 0 640 640" width="200" height="200"><defs><path d="M185.3 570.68L190.34 551.95L196.1 531.06L202.58 500.08L212.67 459.03L222.75 420.13L234.28 382.67L242.2 359.62L247.97 343.05L254.45 325.76L257.33 314.24L260.93 304.87L264.53 292.63L270.3 301.27L279.66 329.36L288.31 346.65L299.11 369.7L309.92 389.87L315.68 401.4L325.76 420.85L334.41 435.97L339.45 446.78L346.65 459.03L352.42 469.11L361.06 485.68L367.54 496.48L372.58 505.85L378.35 517.37L382.67 526.74L387.71 538.98L392.03 548.35L386.99 536.82L379.07 529.62L371.86 522.42L365.38 513.77L360.34 502.25L355.3 491.44L350.25 482.8L345.93 471.99L341.61 459.03L336.57 447.5L330.81 438.14L325.04 426.61L319.28 412.92L312.8 394.19L307.75 374.03L300.55 340.17L296.23 320.72L294.07 308.47L291.91 296.95L287.58 284.7L283.26 275.34L278.22 265.97L273.18 275.34L270.3 285.42L269.58 295.51L270.3 284.7L271.74 271.74L271.74 253.01L273.9 233.56L276.78 218.43L278.22 201.86L280.38 186.02L280.38 175.21L281.1 164.41L281.82 154.32L283.26 142.08L283.98 130.55L278.22 139.92L272.46 152.16L265.97 166.57L260.93 181.69L255.17 196.1L250.13 207.63L242.2 227.08L237.16 237.88L230.68 251.57L222.03 274.62L216.99 286.86L212.67 301.27L209.07 312.08L204.03 330.81L199.7 345.21L194.66 362.5L189.62 379.79L185.3 392.75L180.97 404.28L177.37 415.81L169.45 443.9L164.41 461.19L159.36 475.59L155.76 486.4L150 501.53L144.96 517.37L141.36 527.46L155.04 520.97L166.57 518.81L196.1 512.33L254.45 499.36L320.72 485.68L398.52 473.43L433.09 469.11L457.58 466.95L479.19 464.79L492.88 462.63L483.52 442.46L473.43 421.57L455.42 385.55L430.93 338.01L402.12 291.91L372.58 250.85L342.33 213.39L320.72 189.62L296.23 164.41L275.34 142.8L258.05 123.35L250.85 115.42L243.64 105.34L249.41 113.98L258.05 119.03L267.42 126.23L276.06 134.15L284.7 139.19L273.9 141.36L259.49 136.31L242.92 129.11L226.36 119.03L215.55 108.94L210.51 100.3L211.23 85.89L221.31 75.81L229.96 67.16L238.6 58.52L250.85 49.87L262.37 44.83L276.06 43.39L286.86 43.39L296.95 46.99L306.31 51.31L315.68 57.08L323.6 64.28L330.08 72.2L335.13 83.01L336.57 95.25L335.13 105.34L326.48 115.42L316.4 126.23L308.47 132.71L298.39 136.31L289.03 139.92L299.11 144.24L313.52 147.84L325.04 151.44L340.89 155.04L353.86 157.92L363.94 160.08L381.23 163.69L396.36 165.85L412.2 170.89L426.61 178.09L438.14 183.14L449.66 186.02L467.67 191.78L480.64 198.26L490.72 203.31L486.4 212.67L486.4 222.75L487.84 238.6L490.72 255.89L493.6 273.9L496.48 291.19L497.2 301.27L500.08 321.44L501.53 339.45L502.97 356.74L503.69 368.98L503.69 384.11L504.41 400.68L505.13 412.92L506.57 425.89L508.73 440.3L510.89 464.07L513.77 484.96L510.89 474.15L508.73 463.35L513.05 451.82L515.21 439.58L518.09 426.61L518.09 415.81L518.09 398.52L518.09 380.51L518.09 369.7L518.09 359.62L518.09 345.21L518.09 331.53L518.09 319.28L515.21 300.55L515.21 283.98L514.49 272.46L513.05 258.77L511.61 245.81L510.17 235.72L507.29 220.59L505.13 209.79L502.97 196.1L501.53 185.3L500.08 169.45L497.92 152.88L497.2 139.92L496.48 126.95L496.48 112.54L497.2 101.02L499.36 89.49L504.41 80.13L514.49 82.29L523.86 87.33L531.06 94.53L535.38 103.9L536.82 113.98L537.54 100.3L537.54 82.29L537.54 70.76L537.54 59.96L536.1 49.15L529.62 38.35L520.97 32.58L509.45 28.98L499.36 30.42L492.16 39.07L487.84 48.43L483.52 58.52L479.92 70.76L477.75 80.85L476.31 90.93L474.87 103.9L474.87 114.7L477.75 126.95L480.64 139.92L482.8 150L484.96 162.97L487.12 174.49L487.84 187.46L487.84 197.54L487.12 207.63L487.12 218.43L487.12 229.96L487.84 243.64L488.56 254.45L489.28 266.69L490 283.26L490.72 294.07L492.88 304.15L493.6 315.68L495.04 327.92L496.48 338.73L496.48 351.69L496.48 362.5L496.48 374.03" id="j2s6Iv6JVN"></path><path d="M271.74 155.76L219.15 155.04L144.24 137.03L108.94 120.47L75.81 100.3L56.36 86.61L41.23 74.36L26.1 62.84L13.14 50.59L6.65 42.67L18.18 44.11" id="h1w9PHcYFG"></path><path d="M238.6 67.16L248.69 67.16L258.77 70.04L267.42 75.08" id="b2SbVcbRtu"></path><path d="M283.26 72.2L293.35 70.04L303.43 67.88L316.4 67.88" id="bAASN7iW"></path><path d="M253.01 98.14L265.97 98.14L276.06 98.14L286.86 98.14L296.95 98.86" id="a8lxUnkkuw"></path></defs><g><g><g><g><use xlink:href="#j2s6Iv6JVN" opacity="1" fill-opacity="0" stroke="#000000" stroke-width="1" stroke-opacity="1"></use></g></g><g><g><use xlink:href="#h1w9PHcYFG" opacity="1" fill-opacity="0" stroke="#000000" stroke-width="1" stroke-opacity="1"></use></g></g><g><g><use xlink:href="#b2SbVcbRtu" opacity="1" fill-opacity="0" stroke="#000000" stroke-width="1" stroke-opacity="1"></use></g></g><g><g><use xlink:href="#bAASN7iW" opacity="1" fill-opacity="0" stroke="#000000" stroke-width="1" stroke-opacity="1"></use></g></g><g><g><use xlink:href="#a8lxUnkkuw" opacity="1" fill-opacity="0" stroke="#000000" stroke-width="1" stroke-opacity="1"></use></g></g></g></g></svg>